<svg xmlns="http://www.w3.org/2000/svg" viewBox="0 0 512 512" width="100%" height="100%">
  <defs>
    <!-- Neon Cyan to Electric Blue Gradient -->
    <linearGradient id="trioGradient" x1="0%" y1="0%" x2="100%" y2="100%">
      <stop offset="0%" stop-color="#00FFFF" />
      <stop offset="100%" stop-color="#007BFF" />
    </linearGradient>
  </defs>

  <!-- Thin background ring -->
  <circle cx="256" cy="256" r="120" stroke="url(#trioGradient)" stroke-width="12" fill="none" />

  <!-- Orbital Symbol Group -->
  <!-- The stroke-width and fill="none" create the clean, overlapping tech aesthetic -->
  <g stroke="url(#trioGradient)" stroke-width="20" fill="none" stroke-linecap="round" stroke-linejoin="round">
    
    <!-- Top Shape -->
    <path d="M 216 256 L 216 146 C 216 124 234 106 256 106 C 278 106 296 124 296 146 L 296 256" />
    
    <!-- Bottom Right Shape -->
    <path d="M 216 256 L 216 146 C 216 124 234 106 256 106 C 278 106 296 124 296 146 L 296 256" transform="rotate(120 256 256)" />
    
    <!-- Bottom Left Shape -->
    <path d="M 216 256 L 216 146 C 216 124 234 106 256 106 C 278 106 296 124 296 146 L 296 256" transform="rotate(240 256 256)" />
    
  </g>
</svg>
